<svg width="9" height="14" viewBox="0 0 9 14" fill="none" xmlns="http://www.w3.org/2000/svg">
<path d="M4.57568 0.0942383C3.47477 0.0942383 2.41895 0.531575 1.64048 1.31004C0.862019 2.0885 0.424683 3.14432 0.424683 4.24524C0.424683 8.39624 4.57568 13.3772 4.57568 13.3772C4.57568 13.3772 8.72668 8.39624 8.72668 4.24524C8.72668 3.14432 8.28935 2.0885 7.51088 1.31004C6.73242 0.531575 5.6766 0.0942383 4.57568 0.0942383ZM4.57568 6.78824C4.07272 6.78824 3.58106 6.63909 3.16287 6.35967C2.74467 6.08024 2.41873 5.68307 2.22626 5.2184C2.03378 4.75373 1.98342 4.24242 2.08155 3.74912C2.17967 3.25583 2.42187 2.80271 2.77751 2.44707C3.13316 2.09142 3.58627 1.84922 4.07957 1.7511C4.57286 1.65298 5.08417 1.70334 5.54885 1.89581C6.01352 2.08829 6.41068 2.41423 6.69011 2.83242C6.96954 3.25062 7.11868 3.74228 7.11868 4.24524C7.11868 4.91968 6.85076 5.56651 6.37386 6.04341C5.89695 6.52032 5.25013 6.78824 4.57568 6.78824ZM2.96968 4.24524C2.96968 3.92701 3.06405 3.61592 3.24085 3.35133C3.41765 3.08673 3.66894 2.8805 3.96294 2.75872C4.25695 2.63693 4.58047 2.60507 4.89258 2.66715C5.2047 2.72924 5.4914 2.88248 5.71642 3.1075C5.94144 3.33253 6.09468 3.61922 6.15677 3.93134C6.21885 4.24345 6.18699 4.56697 6.06521 4.86098C5.94342 5.15498 5.73719 5.40627 5.4726 5.58307C5.208 5.75987 4.89691 5.85424 4.57868 5.85424C4.15195 5.85424 3.74269 5.68472 3.44095 5.38297C3.1392 5.08123 2.96968 4.67197 2.96968 4.24524Z" fill="#006000"/>
</svg>
