<svg width="13" height="14" viewBox="0 0 13 14" fill="none" xmlns="http://www.w3.org/2000/svg">
<path d="M11.6465 2.43297L6.84554 0.402397C6.69931 0.340792 6.54255 0.309082 6.38424 0.309082C6.22593 0.309082 6.06918 0.340792 5.92295 0.402397L1.12699 2.43425C0.908142 2.52645 0.721098 2.68245 0.589468 2.88254C0.457838 3.08263 0.387523 3.31785 0.387398 3.5585C0.298409 5.53799 0.772965 7.50159 1.75426 9.21423C2.73555 10.9269 4.18199 12.316 5.92042 13.2152C6.06665 13.2768 6.22341 13.3086 6.38172 13.3086C6.54003 13.3086 6.69678 13.2768 6.84301 13.2152C8.58691 12.3222 10.0384 10.9346 11.0216 9.22064C12.0048 7.50665 12.4774 5.53983 12.3823 3.5585C12.3826 3.3181 12.3129 3.083 12.182 2.88273C12.0511 2.68247 11.8648 2.52599 11.6465 2.43297V2.43297ZM6.38614 11.641V1.96635L10.7808 3.8277C10.8188 5.41318 10.4295 6.97906 9.65497 8.35614C8.88044 9.73321 7.75011 10.8691 6.38614 11.641Z" fill="#F9F9F9"/>
</svg>
