<svg width="13" height="12" viewBox="0 0 13 12" fill="none" xmlns="http://www.w3.org/2000/svg">
<path d="M0.376831 5.84326C0.376831 9.0542 3.06231 11.6558 6.37683 11.6558C9.69135 11.6558 12.3768 9.0542 12.3768 5.84326C12.3768 2.63232 9.69135 0.0307617 6.37683 0.0307617C3.06231 0.0307617 0.376831 2.63232 0.376831 5.84326ZM5.21554 4.71826C5.21554 5.13311 4.86957 5.46826 4.44135 5.46826C4.01312 5.46826 3.66715 5.13311 3.66715 4.71826C3.66715 4.30342 4.01312 3.96826 4.44135 3.96826C4.86957 3.96826 5.21554 4.30342 5.21554 4.71826ZM9.05022 5.10498C8.69215 4.79561 7.93248 4.79561 7.57441 5.10498L7.34457 5.3042C7.14377 5.47764 6.82199 5.31357 6.86554 5.05107C6.96232 4.46045 7.69296 4.06436 8.31473 4.06436C8.93651 4.06436 9.66715 4.46045 9.76393 5.05107C9.80506 5.31123 9.48812 5.47998 9.2849 5.3042L9.05022 5.10498ZM4.19457 7.4792C4.73651 8.10967 5.53006 8.46826 6.37683 8.46826C7.22361 8.46826 8.01715 8.10732 8.55909 7.4792C8.88812 7.09951 9.48086 7.57764 9.15425 7.95967C8.46473 8.75889 7.45344 9.21826 6.37683 9.21826C5.30022 9.21826 4.28893 8.75889 3.59941 7.95732C3.2728 7.57529 3.87038 7.09717 4.19457 7.4792Z" fill="#FF9E54"/>
</svg>
