<svg width="17" height="16" viewBox="0 0 17 16" fill="none" xmlns="http://www.w3.org/2000/svg">
<path d="M16.2135 7.59293L14.765 6.09572L15.0563 4.03326C15.1157 3.61331 14.8311 3.22227 14.4135 3.14848L12.3617 2.78863L11.3856 0.949074C11.1878 0.575533 10.7275 0.42566 10.3471 0.61205L8.47562 1.5265L6.60411 0.61205C6.22373 0.42566 5.76346 0.575533 5.56489 0.949835L4.58882 2.79015L2.53701 3.15C2.11934 3.22303 1.83481 3.61407 1.89415 4.03402L2.18553 6.09648L0.737011 7.59369C0.44183 7.89876 0.44183 8.38185 0.737011 8.68692L2.18553 10.1841L1.89415 12.2466C1.83481 12.6665 2.11934 13.0576 2.53701 13.1314L4.58882 13.4912L5.56489 15.3308C5.76346 15.7051 6.22373 15.855 6.60487 15.6686L8.47562 14.7534L10.3471 15.6678C10.7283 15.8542 11.1878 15.7043 11.3871 15.33L12.3632 13.4905L14.415 13.1306C14.8327 13.0576 15.1172 12.6658 15.0579 12.2458L14.7665 10.1834L16.215 8.68616C16.5079 8.38185 16.5079 7.898 16.2135 7.59293ZM7.71485 11.498L4.89465 8.67779L5.97039 7.60206L7.71485 9.34652L11.7416 5.31973L12.8174 6.39547L7.71485 11.498Z" fill="#4ABC4F"/>
</svg>
