<?xml version="1.0" encoding="utf-8"?>
<!-- Generator: Adobe Illustrator 25.2.0, SVG Export Plug-In . SVG Version: 6.00 Build 0)  -->
<svg version="1.1" id="Layer_1" xmlns="http://www.w3.org/2000/svg" xmlns:xlink="http://www.w3.org/1999/xlink" x="0px" y="0px"
	 viewBox="0 0 260.5 176.7" style="enable-background:new 0 0 260.5 176.7;" xml:space="preserve">
<style type="text/css">
	.st0{fill:#D81F27;}
</style>
<g>
	<path class="st0" d="M49.9,161c-1-0.2-1.6,0.3-2.2,0.6c-9.4,4.2-18.8,8.4-28.2,12.6c-2.1,1-4.3,1.7-6.6,2.2c-3.7,0.8-5.8,0-7.7-3.3
		c-3.2-5.5-5.2-11.5-5.1-18c0-3.1,1.2-5.5,4-7.1c2.1-1.2,4.2-2.4,6.4-3.2c10.7-3.7,20.8-8.7,31.1-13.1c9.5-4.1,19-8.3,28.1-13.4
		c2.9-1.6,6-2.9,9.3-3.9c1.9-0.6,3.5-0.4,5.2,0.8c1.8,1.4,1.9,1.3,3.7-0.1c1.9-1.4,3.9-2.6,6-3.4c15.6-5.9,30.6-13.3,46.2-19.3
		c6.6-2.5,12.9-5.6,19.9-6.8c2.4-0.4,4.7-1.1,7-1.7c1.6-0.5,3.2-1,4.6-2c1.4-1,1.5-1.2,0.6-2.7c-2-3.5-2.1-7.1-0.3-10.8
		c1.5-3.1,5.7-4.6,8.8-3.2c1.1,0.5,2.1,1.1,3.3,1.8c0.4-0.8,0.4-1.6-0.1-2.3c-2.1-3.2-3.1-6.8-4.4-10.3c-0.1-0.4-0.3-0.7-0.4-1.1
		c-0.8-2-0.8-2-2.9-1.9c-3.7,0.1-6.9-1.3-9.6-3.8c-5.7-5.2-8-14.5-5.5-21.8c1.5-4.3,4.3-7.2,8.5-8.9c4.5-1.7,8.8-3.8,13.1-5.9
		c3-1.5,6-2.9,9-4.4c3.3-1.7,6.6-3.1,10.2-4.1c1.3-0.4,2.7-0.7,3.8-1.5c1.5-1,3-1.1,4.6-0.9c8.8,1.3,16.1,7.9,16.9,17
		c0.4,4.1-0.4,8-3.1,11.3c-0.9,1.1-1.7,2.3-2.5,3.5c-0.6,0.8-0.7,1.7-0.1,2.6c0.6,0.9,1,2,1.3,3.1c2.8,9.5,7,18.4,10.6,27.5
		c2,5.1,4.2,10,5.5,15.3c0.4,1.5,0.9,2.9,1.7,4.2c1.1,1.8,2.6,3,4.8,3.2c0.2,0,0.5,0,0.7,0.1c3.3,1.9,7.1,3,10,5.6
		c0.6,0.5,1.1,1.2,1.5,1.9c6.3,10.7,1.9,22.1-6,27.3c-2.8,1.8-5.8,3.1-8.9,4.2c-6.2,2.2-12.2,4.8-17.9,8.1c-3.1,1.8-6.4,3.3-9.9,4.2
		c-5.9,1.4-10.9,0.1-15.1-4.3c-3.6-3.8-5.7-8.2-6-13.5c-0.2-3.7,0.6-7.1,3-10.1c1.1-1.4,2.1-2.8,2.6-4.5c0.2-0.6,0.4-1.2,0-1.8
		c-1.6-2.4-2.3-5.1-3-7.8c-0.1-0.5-0.1-1.1-0.7-1.1c-0.8,0-0.6,0.7-0.8,1.2c0,0.1,0,0.2,0,0.2c-0.7,4.7-4.7,7-8.8,6.7
		c-0.7,0-1.4-0.2-2-0.6c-2.5-1.7-4.8-3.5-5.2-6.8c-0.1-0.5-0.3-0.9-0.6-1.3c-0.7-1.2-1.1-1.2-2.2-0.4c-0.7,0.5-1.4,1.2-2.1,1.5
		c-7.7,3.9-14.8,8.9-22.5,12.7c-12.9,6.3-25.7,12.6-38.5,18.9c-3.2,1.6-6.7,2.6-10.1,3.7c-2.4,0.8-4.7,1.7-6.9,2.7
		c-1.7,0.8-2.8,1.9-3.1,3.6c-0.5,3.1-2.5,4.7-5.2,5.7c-2.6,1-5.3,1.9-7.9,2.8c-1.6,0.5-2.4,1.4-2.7,3.2"/>
</g>
</svg>
