<?xml version="1.0" encoding="utf-8"?>
<!-- Generator: Adobe Illustrator 25.2.0, SVG Export Plug-In . SVG Version: 6.00 Build 0)  -->
<svg version="1.1" id="Layer_1" xmlns="http://www.w3.org/2000/svg" xmlns:xlink="http://www.w3.org/1999/xlink" x="0px" y="0px"
	 viewBox="0 0 459.4 277.9" style="enable-background:new 0 0 459.4 277.9;" xml:space="preserve">
<style type="text/css">
	.st0{fill:#D81F27;}
</style>
<path class="st0" d="M436.1,235.1c0.1-0.4,0.2-0.8,0.7-0.8c0.6,0,0.8,0.4,0.8,0.9c-0.1,1.7,0.4,3.5,0.4,5.2c0,2.9,0.3,5.8,0.6,8.7
	c0.3,2.7,0.5,5.5,1.4,8.1c-1,0-0.8-0.8-0.9-1.4c-1.1-6.3-1.7-12.7-1.9-19.1c0-0.6,0.1-1.1-0.1-1.7
	C436.8,234.5,436.4,235,436.1,235.1z"/>
<path class="st0" d="M434.2,237.5c0-0.7,0.3-1.2,1.1-1.4C435.1,236.7,434.7,237.2,434.2,237.5z"/>
<path class="st0" d="M435.6,235.6c0-0.3,0.2-0.4,0.4-0.5C436.1,235.4,435.9,235.6,435.6,235.6z"/>
<path class="st0" d="M435.2,236.2c0-0.3,0.2-0.5,0.4-0.6C435.6,235.9,435.5,236.1,435.2,236.2z"/>
<path class="st0" d="M433.7,238c0-0.3,0.2-0.5,0.4-0.5C434.2,237.8,434,238,433.7,238z"/>
<g>
	<path class="st0" d="M49.9,161c-1-0.2-1.6,0.3-2.2,0.6c-9.4,4.2-18.8,8.4-28.2,12.6c-2.1,1-4.3,1.7-6.6,2.2c-3.7,0.8-5.8,0-7.7-3.3
		c-3.2-5.5-5.2-11.5-5.1-18c0-3.1,1.2-5.5,4-7.1c2.1-1.2,4.2-2.4,6.4-3.2c10.7-3.7,20.8-8.7,31.1-13.1c9.5-4.1,19-8.3,28.1-13.4
		c2.9-1.6,6-2.9,9.3-3.9c1.9-0.6,3.5-0.4,5.2,0.8c1.8,1.4,1.9,1.3,3.7-0.1c1.9-1.4,3.9-2.6,6-3.4c15.6-5.9,30.6-13.3,46.2-19.3
		c6.6-2.5,12.9-5.6,19.9-6.8c2.4-0.4,4.7-1.1,7-1.7c1.6-0.5,3.2-1,4.6-2c1.4-1,1.5-1.2,0.6-2.7c-2-3.5-2.1-7.1-0.3-10.8
		c1.5-3.1,5.7-4.6,8.8-3.2c1.1,0.5,2.1,1.1,3.3,1.8c0.4-0.8,0.4-1.6-0.1-2.3c-2.1-3.2-3.1-6.8-4.4-10.3c-0.1-0.4-0.3-0.7-0.4-1.1
		c-0.8-2-0.8-2-2.9-1.9c-3.7,0.1-6.9-1.3-9.6-3.8c-5.7-5.2-8-14.5-5.5-21.8c1.5-4.3,4.3-7.2,8.5-8.9c4.5-1.7,8.8-3.8,13.1-5.9
		c3-1.5,6-2.9,9-4.4c3.3-1.7,6.6-3.1,10.2-4.1c1.3-0.4,2.7-0.7,3.8-1.5c1.5-1,3-1.1,4.6-0.9c8.8,1.3,16.1,7.9,16.9,17
		c0.4,4.1-0.4,8-3.1,11.3c-0.9,1.1-1.7,2.3-2.5,3.5c-0.6,0.8-0.7,1.7-0.1,2.6c0.6,0.9,1,2,1.3,3.1c2.8,9.5,7,18.4,10.6,27.5
		c2,5.1,4.2,10,5.5,15.3c0.4,1.5,0.9,2.9,1.7,4.2c1.1,1.8,2.6,3,4.8,3.2c0.2,0,0.5,0,0.7,0.1c3.3,1.9,7.1,3,10,5.6
		c0.6,0.5,1.1,1.2,1.5,1.9c6.3,10.7,1.9,22.1-6,27.3c-2.8,1.8-5.8,3.1-8.9,4.2c-6.2,2.2-12.2,4.8-17.9,8.1c-3.1,1.8-6.4,3.3-9.9,4.2
		c-5.9,1.4-10.9,0.1-15.1-4.3c-3.6-3.8-5.7-8.2-6-13.5c-0.2-3.7,0.6-7.1,3-10.1c1.1-1.4,2.1-2.8,2.6-4.5c0.2-0.6,0.4-1.2,0-1.8
		c-1.6-2.4-2.3-5.1-3-7.8c-0.1-0.5-0.1-1.1-0.7-1.1c-0.8,0-0.6,0.7-0.8,1.2c0,0.1,0,0.2,0,0.2c-0.7,4.7-4.7,7-8.8,6.7
		c-0.7,0-1.4-0.2-2-0.6c-2.5-1.7-4.8-3.5-5.2-6.8c-0.1-0.5-0.3-0.9-0.6-1.3c-0.7-1.2-1.1-1.2-2.2-0.4c-0.7,0.5-1.4,1.2-2.1,1.5
		c-7.7,3.9-14.8,8.9-22.5,12.7c-12.9,6.3-25.7,12.6-38.5,18.9c-3.2,1.6-6.7,2.6-10.1,3.7c-2.4,0.8-4.7,1.7-6.9,2.7
		c-1.7,0.8-2.8,1.9-3.1,3.6c-0.5,3.1-2.5,4.7-5.2,5.7c-2.6,1-5.3,1.9-7.9,2.8c-1.6,0.5-2.4,1.4-2.7,3.2c-1.1,6.5-1.3,13.1-1.3,19.6
		c-0.1,18.2,0,36.5,0,54.7c0,8.9-1.5,17.5-4.9,25.7c-3,7.2-7.8,12.9-14.3,17.3c-7.5,5.2-15.9,8.1-24.5,10.5
		c-0.2,0.1-0.5,0.1-0.7,0.2c-0.3,0-0.7,0.1-0.8-0.3c-0.1-0.4,0.1-0.6,0.4-0.8c0.3-0.2,0.5-0.4,0.8-0.5c10.4-7.3,16.2-17.4,17.8-30
		c0.5-4.1,0.7-8.3,0.7-12.4c0-21.4,0-42.9,0-64.3C50.1,166.7,49.9,163.9,49.9,161z"/>
	<path class="st0" d="M149.8,235.8c-0.8,0.3-1.1,1.1-1.5,1.7c-5.2,6.8-11.3,12.6-19,16.6c-6.2,3.3-12.7,4.6-19.7,3.3
		c-6.7-1.2-11.5-5-14.4-11.1c-2.1-4.5-3-9.2-3.5-14.1c-0.4-4.1-0.5-8.3-0.5-12.5c0-8,0-16,0-24c0-3.3-0.3-6.5-0.9-9.8
		c-1-4.9-2.7-6.5-7.6-7.3c-0.6-0.1-1.1-0.2-1.7-0.2c-0.4-0.1-0.6-0.3-0.6-0.6c0-0.3,0.3-0.5,0.6-0.6c1.5-0.3,3-0.5,4.5-0.8
		c5.3-1.2,10.4-3.1,15.2-5.7c0.5-0.3,1-0.6,1.5-0.8c0.5-0.2,1,0,1,0.6c0.1,0.7,0.1,1.4,0.1,2.2c0,15.5,0,31,0,46.5
		c0,5.4,0.2,10.9,1.3,16.2c0.5,2.2,1.1,4.3,2.1,6.4c2.2,4.6,5.9,7.2,11,7.9c5.6,0.8,11-0.2,16.1-2.8c6.1-3.1,10.9-7.7,15.2-12.9
		c0.6-0.7,0.7-1.4,0.7-2.2c0-12.7,0-25.4-0.1-38.1c0-2.7-0.3-5.4-0.9-8.1c-1.1-4.5-3.2-6.3-7.7-6.9c-0.3,0-0.6,0-1-0.1
		c-0.5-0.1-1.3,0.1-1.3-0.7c0-0.7,0.8-0.6,1.3-0.7c6.9-1.2,13.5-3.4,19.6-6.7c1.9-1,2-0.9,2.1,1.3c0,17.2,0,34.4,0,51.6
		c0,4.6-0.1,9.1,0.4,13.7c0.2,1.8,0.5,3.5,1.1,5.2c1.2,3.7,3.7,6.1,7.5,7c0.4,0.1,0.8,0.1,1.2,0.2c0.3,0.1,0.6,0.3,0.5,0.7
		c-0.1,0.2-0.2,0.4-0.4,0.5c-0.4,0.2-0.7,0.3-1.1,0.4c-5.6,1.3-10.9,3.5-16,6.2c-0.4,0.2-0.8,0.5-1.3,0.7c-0.9,0.4-1.4,0.1-1.5-0.9
		c-0.3-2.1-0.7-4.1-1-6.2c-0.6-4.7-1-9.4-1-14.1C150.2,236.3,150.3,236,149.8,235.8z"/>
	<path class="st0" d="M172.8,224.5c1.3,3.4,2.6,6.7,4.3,9.9c4.1,7.7,9.8,14,17.6,18.1c8,4.2,16.2,4.2,24.2,0.3
		c7.9-3.8,10.8-11.6,8.4-20c-0.8-2.7-2.5-4.8-4.8-6.4c-2.5-1.8-5.3-3-8.2-4c-7.1-2.3-14.2-4.4-21.3-6.6c-4.2-1.3-8.2-3.2-11.8-5.7
		c-12.6-8.8-11.4-29.3,2-36.6c6.2-3.3,12.7-4.6,19.7-3.8c4.8,0.6,9.5,2,14.3,3c3.7,0.8,6.6,0,8.6-3.4c0.2-0.4,0.5-0.9,1-0.9
		c0.4,0,0.6,0.3,0.6,0.6c1.5,9.5,3,18.9,4.5,28.4c0,0.3,0,0.6,0,1c0.4,0.8-0.2,1.7,0.4,2.5c0.1,0.1,0.1,0.3,0,0.4
		c0.1,0.9,0.8,2-0.6,2.6l0,0c-0.3-0.5,0-1.1-0.4-1.5c-1.1-2.8-2-5.7-3.4-8.4c-4-8.2-9.9-14.7-17.8-19.3c-5.1-3-10.6-4-16.4-2.4
		c-11.6,3.2-13.6,14-10.8,21.8c1,2.7,3,4.5,5.4,5.9c2.6,1.5,5.5,2.6,8.4,3.4c6.4,1.9,12.9,3.8,19.2,5.9c3.5,1.1,6.9,2.6,10,4.5
		c2.1,1.3,4.1,2.7,5.9,4.5c3.7,3.7,5.5,8.2,5.5,13.4c0,3.1-0.4,6.1-1.3,9c-1.5,4.8-4.4,8.7-8.7,11.4c-9.5,6-19.8,7.2-30.6,4.4
		c-2.8-0.7-5.6-1.4-8.4-1.9c-4.2-0.7-7.8-0.1-10.3,3.7c-0.2,0.3-0.5,0.6-0.9,0.7c-0.4-0.1-0.5-0.4-0.6-0.7
		c-1.6-10-3.2-20.1-4.8-30.1c-0.1-0.4-0.1-0.8-0.1-1.2c-0.3-1.4-0.2-2.8-0.6-4.2c-0.1-0.5-0.5-1.5,0.6-1.6c0.1,0.1,0.1,0.2,0.1,0.4
		c0.3,0.4-0.1,1.1,0.5,1.5l0,0C172.7,223.5,172.3,224.2,172.8,224.5z"/>
	<path class="st0" d="M341.7,177.8c0.4-1.1,1.4-0.9,2.1-1c6.6-1.1,12.8-3.4,18.7-6.6c0.4-0.2,0.7-0.4,1.1-0.5c0.7-0.2,1.1,0,1.2,0.7
		c0.1,0.7,0.1,1.4,0.1,2.2c0,21,0,41.9,0,62.9c0,3.9-0.1,7.8,0.6,11.7c0,0.1,0,0.2,0,0.2c0.7,4.8,2.4,6.5,7.2,7.3
		c1.6,0.3,3.2,0.2,4.7,0.7c-0.1,0.9-0.7,0.9-1.3,0.9c-1.7,0-3.4,0-5-0.1c-8.4-0.6-16.8-0.6-25.2,0c-1.2,0.1-2.4,0.1-3.6,0.1
		c-0.8,0-2.2,0.5-2.3-0.5c-0.1-1.1,1.3-0.6,2.1-0.8c0.6-0.2,1.3-0.1,1.9-0.2c1-0.2,2-0.4,3-0.8c2-0.7,3.4-2.1,4-4.1
		c0.6-1.9,0.9-3.9,1-5.9c0.1-1.6,0.2-3.2,0.2-4.8c0-14.2,0-28.5,0-42.7c0-3.6-0.4-7.2-0.9-10.7c-0.5-3.3-2.4-5.2-5.4-6.4
		C344.6,178.8,343,178.8,341.7,177.8z"/>
	<path class="st0" d="M357.7,155c-4.8,0-8.4-3.7-8.4-8.6c0-4.9,3.7-8.5,8.5-8.4c4.8,0.1,8.4,3.7,8.4,8.6
		C366.2,151.5,362.7,155,357.7,155z"/>
	<path class="st0" d="M171.8,221.2c-0.7,0.6-0.5,1.4-0.3,2.1c0.3,1.2,0.4,2.4,0.3,3.7c-0.9-2.2-0.8-4.5-1.3-6.8
		c-0.1-0.3,0-0.6,0.3-0.8c0.4-0.2,0.6,0.1,0.7,0.4C171.8,220.2,171.9,220.7,171.8,221.2z"/>
	<path class="st0" d="M231.7,204c0.9-0.7,0.2-1.7,0.6-2.6c0.6,1.8,0.9,3.6,0.7,5.5C231.8,206.2,231.7,205.1,231.7,204z"/>
	<path class="st0" d="M232.3,201c-0.8-0.7-0.5-1.6-0.4-2.5C232.3,199.3,232.4,200.2,232.3,201z"/>
	<path class="st0" d="M231.3,202.5c0.6,0.4,0.6,0.9,0.4,1.5C231.2,203.6,231.2,203,231.3,202.5z"/>
	<path class="st0" d="M172.3,223.1c-0.6-0.4-0.6-0.9-0.5-1.5C172.3,222,172.4,222.5,172.3,223.1z"/>
	<path class="st0" d="M172.8,224.5c-0.6-0.4-0.6-0.9-0.5-1.5C172.7,223.5,172.9,224,172.8,224.5z"/>
	<path class="st0" d="M335.8,204.3c-2.4-1.5-5-2.8-7.8-3.7c-11.2-3.8-22.7-5.3-34.4-5.4c-0.9,0-1.8,0.1-2.7-0.4
		c0.9-0.5,1.9-0.5,2.8-0.5c9-0.7,17.9-2.1,26.4-5.5c4.5-1.8,8.6-4.1,12.3-7.3c5.9-5,8.9-11.2,8.2-19c-0.7-7.5-4-13.4-10.5-17.3
		c-2.4-1.5-5-2.5-7.7-3.4c-7.2-2.2-14.5-3-22-3.2c-21.5-0.4-43,0.3-64.5-0.6c-0.6,0-1.1,0-1.7,0.1c-0.2,0-0.4,0.2-0.5,0.4
		c-0.2,0.4,0.1,0.7,0.4,0.7c1.1,0.2,2.2,0.3,3.3,0.4c5.8,0.7,8.6,3.2,10,8.8c1,4,1.3,8,1.4,12.1c0.5,18.9,0.1,37.9,0.2,56.9
		c0,5.5-0.1,11-0.2,16.5c-0.1,3.7-0.4,7.3-1.2,10.9c-1.5,6.8-4.3,9.2-11.1,9.8c-0.1,0-0.2,0-0.2,0c-0.9,0.3-2.5-0.4-2.5,1
		c0,1,1.6,0.5,2.5,0.5c9.7-0.3,19.3-0.6,29-0.5c13.6,0.1,27.2,0,40.8,0c7.6,0,15.2-0.9,22.3-3.7c10.6-4.1,16.9-11.6,18.6-23
		C348.6,218.4,345,210.1,335.8,204.3z M274.7,168.2c0.1-7.5-0.1-16.3,1-24.9c0.1-0.5,0.1-1,0.2-1.4c0.1-0.8,0.6-1.1,1.3-1.1
		c5.9,0.1,11.8-0.4,17.7,0.9c3,0.7,5.8,1.9,8.4,3.5c5.5,3.4,8.8,8.3,9.9,14.6c0.9,5,0.7,10-0.5,15c-2.2,8.5-7.8,13.7-15.9,16.5
		c-6.7,2.4-13.7,2.7-20.8,2.6c-0.9,0-1.3-0.4-1.3-1.3c0-0.6,0-1.1,0-1.7C274.7,183.7,274.7,176.5,274.7,168.2z M318.8,233.6
		c-3.1,10.4-10.4,16.3-20.8,18.7c-3,0.7-6.2,1-9.3,1c-3.4,0-6.7,0-10.1,0c-2.6,0-2.6,0-3-2.5c-0.8-6.1-0.9-12.3-1-18.4
		c0-3.2,0-6.4,0-9.6c0,0,0,0,0,0c0-8.2,0-16.3,0-24.5c0-2.2,0-2.2,2.2-2.2c6.8,0,13.6,0.2,20.3,1.8c3.3,0.8,6.5,1.8,9.5,3.4
		c7.4,3.9,11.8,9.8,13,18.1C320.4,224.2,320.2,229,318.8,233.6z"/>
	<g>
		<path class="st0" d="M435.2,236.1C435.2,236.1,435.2,236.1,435.2,236.1C435.2,236.2,435.2,236.2,435.2,236.1L435.2,236.1z"/>
		<path class="st0" d="M435.7,235.6C435.7,235.6,435.7,235.6,435.7,235.6C435.7,235.6,435.7,235.6,435.7,235.6L435.7,235.6z"/>
		<path class="st0" d="M457.7,248.7c-0.1-0.1-0.3-0.1-0.5-0.1c-3-0.6-5.2-2.4-6.4-5.2c-0.6-1.4-1-2.9-1.3-4.4
			c-0.7-4.2-0.8-8.4-0.8-12.7c0-31.3,0-62.5,0-93.8c0-0.6,0-1.1,0-1.7c-0.1-1.6-0.3-1.7-1.7-1c-6.7,3.6-13.8,6.4-21,8.7
			c-0.6,0.2-1.3,0.2-1.6,1.1c0.9,0.7,2,0.3,2.9,0.3c4.4,0.2,7,2.2,8.2,6.4c0.6,2.2,0.9,4.4,0.9,6.6c0,8.1,0,16.1,0,24.2
			c0,0.4,0.2,1-0.4,1.3c-0.9-0.3-1.4-1-2.1-1.5c-12.2-9.1-25.2-10-38.5-3.2c-10.2,5.2-17.5,13.4-21.9,23.9
			c-4.9,11.6-5.4,23.6-2.3,35.7c1.9,7.3,6,13.1,12.1,17.6c10.9,8,26.2,8.5,36.8,0.8c5.2-3.8,9.8-8.4,13.5-13.8
			c0.1-0.2,0.3-0.4,0.4-0.5l0,0c0.4-0.4,0.5-1,1-1.3c0.1-0.2,0.2-0.4,0.4-0.5c0.1-0.2,0.3-0.3,0.4-0.5l0,0c1.7-1.3,1.2,0.4,1.2,1
			c0.3,5.8,0.7,11.5,1.6,17.2c0.2,1.3-0.2,2.9,1.1,4c2.2-0.4,3.9-1.8,5.8-2.8c3.8-1.9,7.7-3.5,11.9-4.1c0.7-0.1,1.7,0.2,1.8-0.7
			C459.5,248.7,458.3,248.9,457.7,248.7z M436,233.1c-0.1,0.3-0.2,0.4-0.4,0.5c-0.1,0.2-0.3,0.3-0.4,0.5l0,0c-0.4,0.4-0.5,1-1.1,1.3
			c0,0.3-0.2,0.4-0.4,0.5c-0.1,0.2-0.3,0.4-0.4,0.5c-0.1,0.2-0.3,0.3-0.4,0.5c-2.5,2.8-5,5.6-8,7.9c-6.8,5.2-14.3,6.7-22.6,4.2
			c-4.5-1.4-8-4.2-10.9-7.9c-3.6-4.7-5.6-10-6.8-15.7c-2.2-11-2-21.9,1.1-32.7c1.2-3.9,2.9-7.6,5.3-10.9c6.7-9.1,17.8-12,28.2-7.5
			c7.1,3.1,12,8.5,15.6,15.3c0.4,0.8,0.8,1.5,1.2,2.3c0.7,1,0.8,2.2,0.8,3.4c0,11.6,0,23.3,0,34.9
			C436.8,231.3,436.9,232.3,436,233.1z"/>
	</g>
</g>
<path class="st0" d="M436,233.1c0.4-0.9,0.5-1.8,0.5-2.8c0-11.7,0-23.4,0-35.1c0-1.2-0.4-2.2-0.5-3.3c1.2,0.8,1.1,2,1.1,3.2
	c0,10.4,0,20.9,0,31.3c0,1.6,0,3.2,0,4.8C437.1,232.1,437,232.9,436,233.1z"/>
<path class="st0" d="M434.1,235.5c0.2-0.6,0.5-1,1.1-1.3C435.1,234.9,434.8,235.4,434.1,235.5z"/>
<path class="st0" d="M435.6,233.6c0-0.3,0.1-0.5,0.4-0.6C436,233.4,435.9,233.6,435.6,233.6z"/>
<path class="st0" d="M435.2,234.2c0-0.3,0.1-0.5,0.4-0.5C435.6,233.9,435.4,234.1,435.2,234.2z"/>
<path class="st0" d="M433.6,236c0-0.3,0.2-0.5,0.5-0.6C434.1,235.8,433.9,236,433.6,236z"/>
<path class="st0" d="M433.2,236.5c0-0.3,0.2-0.5,0.5-0.5C433.6,236.3,433.5,236.5,433.2,236.5z"/>
<path class="st0" d="M432.8,237c0-0.3,0.2-0.5,0.5-0.5C433.2,236.8,433,237,432.8,237z"/>
</svg>
