<?xml version="1.0" encoding="utf-8"?>
<!-- Generator: Adobe Illustrator 25.2.0, SVG Export Plug-In . SVG Version: 6.00 Build 0)  -->
<svg version="1.1" id="Layer_1" xmlns="http://www.w3.org/2000/svg" xmlns:xlink="http://www.w3.org/1999/xlink" x="0px" y="0px"
	 viewBox="0 0 429.1 184.4" style="enable-background:new 0 0 429.1 184.4;" xml:space="preserve">
<style type="text/css">
	.st0{fill:#D81F27;}
</style>
<g>
	<path class="st0" d="M49.2,53.1c-1.6,0.5-2.4,1.4-2.7,3.2c-1.1,6.5-1.3,13.1-1.3,19.6c-0.1,18.2,0,36.5,0,54.7
		c0,8.9-1.5,17.5-4.9,25.7c-3,7.2-7.8,12.9-14.3,17.3c-7.5,5.2-15.9,8.1-24.5,10.5c-0.2,0.1-0.5,0.1-0.7,0.2c-0.3,0-0.7,0.1-0.8-0.3
		c-0.1-0.4,0.1-0.6,0.4-0.8c0.3-0.2,0.5-0.4,0.8-0.5c10.4-7.3,16.2-17.4,17.8-30c0.5-4.1,0.7-8.3,0.7-12.4c0-21.4,0-42.9,0-64.3
		c0-2.8-0.1-5.7-0.2-8.5c-1-0.2-1.6,0.3-2.2,0.6"/>
	<path class="st0" d="M225.7,0c0.6,0.5,1.1,1.2,1.5,1.9"/>
	<path class="st0" d="M119.5,142.2c-0.8,0.3-1.1,1.1-1.5,1.7c-5.2,6.8-11.3,12.6-19,16.6c-6.2,3.3-12.7,4.6-19.7,3.3
		c-6.7-1.2-11.5-5-14.4-11.1c-2.1-4.5-3-9.2-3.5-14.1c-0.4-4.1-0.5-8.3-0.5-12.5c0-8,0-16,0-24c0-3.3-0.3-6.5-0.9-9.8
		c-1-4.9-2.7-6.5-7.6-7.3c-0.6-0.1-1.1-0.2-1.7-0.2c-0.4-0.1-0.6-0.3-0.6-0.6c0-0.3,0.3-0.5,0.6-0.6c1.5-0.3,3-0.5,4.5-0.8
		c5.3-1.2,10.4-3.1,15.2-5.7c0.5-0.3,1-0.6,1.5-0.8c0.5-0.2,1,0,1,0.6c0.1,0.7,0.1,1.4,0.1,2.2c0,15.5,0,31,0,46.5
		c0,5.4,0.2,10.9,1.3,16.2c0.5,2.2,1.1,4.3,2.1,6.4c2.2,4.6,5.9,7.2,11,7.9c5.6,0.8,11-0.2,16.1-2.8c6.1-3.1,10.9-7.7,15.2-12.9
		c0.6-0.7,0.7-1.4,0.7-2.2c0-12.7,0-25.4-0.1-38.1c0-2.7-0.3-5.4-0.9-8.1c-1.1-4.5-3.2-6.3-7.7-6.9c-0.3,0-0.6,0-1-0.1
		c-0.5-0.1-1.3,0.1-1.3-0.7c0-0.7,0.8-0.6,1.3-0.7c6.9-1.2,13.5-3.4,19.6-6.7c1.9-1,2-0.9,2.1,1.3c0,17.2,0,34.4,0,51.6
		c0,4.6-0.1,9.1,0.4,13.7c0.2,1.8,0.5,3.5,1.1,5.2c1.2,3.7,3.7,6.1,7.5,7c0.4,0.1,0.8,0.1,1.2,0.2c0.3,0.1,0.6,0.3,0.5,0.7
		c-0.1,0.2-0.2,0.4-0.4,0.5c-0.4,0.2-0.7,0.3-1.1,0.4c-5.6,1.3-10.9,3.5-16,6.2c-0.4,0.2-0.8,0.5-1.3,0.7c-0.9,0.4-1.4,0.1-1.5-0.9
		c-0.3-2.1-0.7-4.1-1-6.2c-0.6-4.7-1-9.4-1-14.1C119.8,142.8,119.9,142.4,119.5,142.2z"/>
	<path class="st0" d="M142.4,131c1.3,3.4,2.6,6.7,4.3,9.9c4.1,7.7,9.8,14,17.6,18.1c8,4.2,16.2,4.2,24.2,0.3
		c7.9-3.8,10.8-11.6,8.4-20c-0.8-2.7-2.5-4.8-4.8-6.4c-2.5-1.8-5.3-3-8.2-4c-7.1-2.3-14.2-4.4-21.3-6.6c-4.2-1.3-8.2-3.2-11.8-5.7
		c-12.6-8.8-11.4-29.3,2-36.6c6.2-3.3,12.7-4.6,19.7-3.8c4.8,0.6,9.5,2,14.3,3c3.7,0.8,6.6,0,8.6-3.4c0.2-0.4,0.5-0.9,1-0.9
		c0.4,0,0.6,0.3,0.6,0.6c1.5,9.5,3,18.9,4.5,28.4c0,0.3,0,0.6,0,1c0.4,0.8-0.2,1.7,0.4,2.5c0.1,0.1,0.1,0.3,0,0.4
		c0.1,0.9,0.8,2-0.6,2.6l0,0c-0.3-0.5,0-1.1-0.4-1.5c-1.1-2.8-2-5.7-3.4-8.4c-4-8.2-9.9-14.7-17.8-19.3c-5.1-3-10.6-4-16.4-2.4
		c-11.6,3.2-13.6,14-10.8,21.8c1,2.7,3,4.5,5.4,5.9c2.6,1.5,5.5,2.6,8.4,3.4c6.4,1.9,12.9,3.8,19.2,5.9c3.5,1.1,6.9,2.6,10,4.5
		c2.1,1.3,4.1,2.7,5.9,4.5c3.7,3.7,5.5,8.2,5.5,13.4c0,3.1-0.4,6.1-1.3,9c-1.5,4.8-4.4,8.7-8.7,11.4c-9.5,6-19.8,7.2-30.6,4.4
		c-2.8-0.7-5.6-1.4-8.4-1.9c-4.2-0.7-7.8-0.1-10.3,3.7c-0.2,0.3-0.5,0.6-0.9,0.7c-0.4-0.1-0.5-0.4-0.6-0.7
		c-1.6-10-3.2-20.1-4.8-30.1c-0.1-0.4-0.1-0.8-0.1-1.2c-0.3-1.4-0.2-2.8-0.6-4.2c-0.1-0.5-0.5-1.5,0.6-1.6c0.1,0.1,0.1,0.2,0.1,0.4
		c0.3,0.4-0.1,1.1,0.5,1.5l0,0C142.3,129.9,141.9,130.6,142.4,131z"/>
	<path class="st0" d="M311.4,84.3c0.4-1.1,1.4-0.9,2.1-1c6.6-1.1,12.8-3.4,18.7-6.6c0.4-0.2,0.7-0.4,1.1-0.5c0.7-0.2,1.1,0,1.2,0.7
		c0.1,0.7,0.1,1.4,0.1,2.2c0,21,0,41.9,0,62.9c0,3.9-0.1,7.8,0.6,11.7c0,0.1,0,0.2,0,0.2c0.7,4.8,2.4,6.5,7.2,7.3
		c1.6,0.3,3.2,0.2,4.7,0.7c-0.1,0.9-0.7,0.9-1.3,0.9c-1.7,0-3.4,0-5-0.1c-8.4-0.6-16.8-0.6-25.2,0c-1.2,0.1-2.4,0.1-3.6,0.1
		c-0.8,0-2.2,0.5-2.3-0.5c-0.1-1.1,1.3-0.6,2.1-0.8c0.6-0.2,1.3-0.1,1.9-0.2c1-0.2,2-0.4,3-0.8c2-0.7,3.4-2.1,4-4.1
		c0.6-1.9,0.9-3.9,1-5.9c0.1-1.6,0.2-3.2,0.2-4.8c0-14.2,0-28.5,0-42.7c0-3.6-0.4-7.2-0.9-10.7c-0.5-3.3-2.4-5.2-5.4-6.4
		C314.2,85.2,312.6,85.2,311.4,84.3z"/>
	<path class="st0" d="M327.4,61.4c-4.8,0-8.4-3.7-8.4-8.6c0-4.9,3.7-8.5,8.5-8.4c4.8,0.1,8.4,3.7,8.4,8.6
		C335.8,57.9,332.3,61.4,327.4,61.4z"/>
	<path class="st0" d="M141.4,127.6c-0.7,0.6-0.5,1.4-0.3,2.1c0.3,1.2,0.4,2.4,0.3,3.7c-0.9-2.2-0.8-4.5-1.3-6.8
		c-0.1-0.3,0-0.6,0.3-0.8c0.4-0.2,0.6,0.1,0.7,0.4C141.4,126.7,141.6,127.1,141.4,127.6z"/>
	<path class="st0" d="M201.3,110.4c0.9-0.7,0.2-1.7,0.6-2.6c0.6,1.8,0.9,3.6,0.7,5.5C201.5,112.7,201.4,111.6,201.3,110.4z"/>
	<path class="st0" d="M201.9,107.5c-0.8-0.7-0.5-1.6-0.4-2.5C202,105.7,202,106.6,201.9,107.5z"/>
	<path class="st0" d="M200.9,108.9c0.6,0.4,0.6,0.9,0.4,1.5C200.9,110,200.9,109.5,200.9,108.9z"/>
	<path class="st0" d="M142,129.5c-0.6-0.4-0.6-0.9-0.5-1.5C141.9,128.4,142.1,128.9,142,129.5z"/>
	<path class="st0" d="M142.4,131c-0.6-0.4-0.6-0.9-0.5-1.5C142.4,129.9,142.5,130.4,142.4,131z"/>
	<path class="st0" d="M305.5,110.7c-2.4-1.5-5-2.8-7.8-3.7c-11.2-3.8-22.7-5.3-34.4-5.4c-0.9,0-1.8,0.1-2.7-0.4
		c0.9-0.5,1.9-0.5,2.8-0.5c9-0.7,17.9-2.1,26.4-5.5c4.5-1.8,8.6-4.1,12.3-7.3c5.9-5,8.9-11.2,8.2-19c-0.7-7.5-4-13.4-10.5-17.3
		c-2.4-1.5-5-2.5-7.7-3.4c-7.2-2.2-14.5-3-22-3.2c-21.5-0.4-43,0.3-64.5-0.6c-0.6,0-1.1,0-1.7,0.1c-0.2,0-0.4,0.2-0.5,0.4
		c-0.2,0.4,0.1,0.7,0.4,0.7c1.1,0.2,2.2,0.3,3.3,0.4c5.8,0.7,8.6,3.2,10,8.8c1,4,1.3,8,1.4,12.1c0.5,18.9,0.1,37.9,0.2,56.9
		c0,5.5-0.1,11-0.2,16.5c-0.1,3.7-0.4,7.3-1.2,10.9c-1.5,6.8-4.3,9.2-11.1,9.8c-0.1,0-0.2,0-0.2,0c-0.9,0.3-2.5-0.4-2.5,1
		c0,1,1.6,0.5,2.5,0.5c9.7-0.3,19.3-0.6,29-0.5c13.6,0.1,27.2,0,40.8,0c7.6,0,15.2-0.9,22.3-3.7c10.6-4.1,16.9-11.6,18.6-23
		C318.3,124.8,314.7,116.5,305.5,110.7z M244.4,74.6c0.1-7.5-0.1-16.3,1-24.9c0.1-0.5,0.1-1,0.2-1.4c0.1-0.8,0.6-1.1,1.3-1.1
		c5.9,0.1,11.8-0.4,17.7,0.9c3,0.7,5.8,1.9,8.4,3.5c5.5,3.4,8.8,8.3,9.9,14.6c0.9,5,0.7,10-0.5,15c-2.2,8.5-7.8,13.7-15.9,16.5
		c-6.7,2.4-13.7,2.7-20.8,2.6c-0.9,0-1.3-0.4-1.3-1.3c0-0.6,0-1.1,0-1.7C244.4,90.2,244.4,83,244.4,74.6z M288.5,140.1
		c-3.1,10.4-10.4,16.3-20.8,18.7c-3,0.7-6.2,1-9.3,1c-3.4,0-6.7,0-10.1,0c-2.6,0-2.6,0-3-2.5c-0.8-6.1-0.9-12.3-1-18.4
		c0-3.2,0-6.4,0-9.6c0,0,0,0,0,0c0-8.2,0-16.3,0-24.5c0-2.2,0-2.2,2.2-2.2c6.8,0,13.6,0.2,20.3,1.8c3.3,0.8,6.5,1.8,9.5,3.4
		c7.4,3.9,11.8,9.8,13,18.1C290.1,130.6,289.9,135.4,288.5,140.1z"/>
	<g>
		<path class="st0" d="M404.9,142.6C404.9,142.6,404.9,142.6,404.9,142.6C404.9,142.6,404.9,142.6,404.9,142.6L404.9,142.6z"/>
		<path class="st0" d="M405.3,142C405.3,142,405.3,142,405.3,142C405.3,142.1,405.3,142.1,405.3,142L405.3,142z"/>
		<path class="st0" d="M427.4,155.1c-0.1-0.1-0.3-0.1-0.5-0.1c-3-0.6-5.2-2.4-6.4-5.2c-0.6-1.4-1-2.9-1.3-4.4
			c-0.7-4.2-0.8-8.4-0.8-12.7c0-31.3,0-62.5,0-93.8c0-0.6,0-1.1,0-1.7c-0.1-1.6-0.3-1.7-1.7-1c-6.7,3.6-13.8,6.4-21,8.7
			c-0.6,0.2-1.3,0.2-1.6,1.1c0.9,0.7,2,0.3,2.9,0.3c4.4,0.2,7,2.2,8.2,6.4c0.6,2.2,0.9,4.4,0.9,6.6c0,8.1,0,16.1,0,24.2
			c0,0.4,0.2,1-0.4,1.3c-0.9-0.3-1.4-1-2.1-1.5c-12.2-9.1-25.2-10-38.5-3.2c-10.2,5.2-17.5,13.4-21.9,23.9
			c-4.9,11.6-5.4,23.6-2.3,35.7c1.9,7.3,6,13.1,12.1,17.6c10.9,8,26.2,8.5,36.8,0.8c5.2-3.8,9.8-8.4,13.5-13.8
			c0.1-0.2,0.3-0.4,0.4-0.5l0,0c0.4-0.4,0.5-1,1-1.3c0.1-0.2,0.2-0.4,0.4-0.5c0.1-0.2,0.3-0.3,0.4-0.5l0,0c1.7-1.3,1.2,0.4,1.2,1
			c0.3,5.8,0.7,11.5,1.6,17.2c0.2,1.3-0.2,2.9,1.1,4c2.2-0.4,3.9-1.8,5.8-2.8c3.8-1.9,7.7-3.5,11.9-4.1c0.7-0.1,1.7,0.2,1.8-0.7
			C429.1,155.1,428,155.4,427.4,155.1z M405.7,139.5c-0.1,0.3-0.2,0.4-0.4,0.5c-0.1,0.2-0.3,0.3-0.4,0.5l0,0c-0.4,0.4-0.5,1-1.1,1.3
			c0,0.3-0.2,0.4-0.4,0.5c-0.1,0.2-0.3,0.4-0.4,0.5c-0.1,0.2-0.3,0.3-0.4,0.5c-2.5,2.8-5,5.6-8,7.9c-6.8,5.2-14.3,6.7-22.6,4.2
			c-4.5-1.4-8-4.2-10.9-7.9c-3.6-4.7-5.6-10-6.8-15.7c-2.2-11-2-21.9,1.1-32.7c1.2-3.9,2.9-7.6,5.3-10.9c6.7-9.1,17.8-12,28.2-7.5
			c7.1,3.1,12,8.5,15.6,15.3c0.4,0.8,0.8,1.5,1.2,2.3c0.7,1,0.8,2.2,0.8,3.4c0,11.6,0,23.3,0,34.9
			C406.5,137.7,406.6,138.8,405.7,139.5z"/>
	</g>
</g>
</svg>
